<svg id="svg" version="1.1" xmlns="http://www.w3.org/2000/svg" xmlns:xlink="http://www.w3.org/1999/xlink" width="400" height="400" viewBox="0, 0, 400,400"><g id="svgg"><path id="path0" d="M194.400 127.624 C 187.096 128.110,179.177 129.906,173.400 132.389 C 157.428 139.253,145.759 149.205,137.490 163.018 C 135.423 166.469,132.145 173.543,131.195 176.600 C 130.921 177.480,130.555 178.583,130.380 179.051 C 124.294 195.341,127.016 218.334,137.263 237.200 C 144.241 250.047,158.749 262.340,173.600 267.989 C 175.470 268.700,177.360 269.435,177.800 269.622 C 180.886 270.934,188.049 272.263,195.087 272.828 C 208.786 273.928,220.435 271.483,234.749 264.503 L 236.897 263.455 245.096 271.728 C 249.606 276.277,253.523 280.000,253.800 280.000 C 254.172 280.000,270.585 263.785,277.131 256.950 C 277.577 256.484,276.431 255.166,269.931 248.670 C 265.679 244.421,255.454 234.160,247.209 225.869 L 232.219 210.794 208.292 210.897 L 184.364 211.000 195.442 222.087 C 208.747 235.404,208.494 234.624,199.406 234.284 C 196.103 234.160,192.860 233.869,192.200 233.638 C 191.540 233.406,189.830 232.841,188.400 232.381 C 169.617 226.338,160.147 202.971,169.140 184.858 C 183.258 156.427,224.551 160.510,233.272 191.200 C 234.627 195.967,234.654 202.086,233.351 209.100 L 233.109 210.400 252.703 210.400 L 272.298 210.400 272.542 208.871 C 277.536 177.641,256.718 143.420,225.800 132.037 C 223.820 131.308,221.840 130.570,221.400 130.397 C 216.054 128.290,203.612 127.012,194.400 127.624 " stroke="none" fill="#fbfbfb" fill-rule="evenodd"></path><path id="path1" d="M178.811 0.480 C 175.407 0.679,172.527 0.993,172.411 1.177 C 172.196 1.519,168.828 1.978,166.530 1.979 C 165.832 1.979,165.146 2.164,165.006 2.389 C 164.867 2.615,163.964 2.800,163.000 2.800 C 162.036 2.800,161.147 2.962,161.025 3.159 C 160.903 3.357,159.542 3.645,158.002 3.800 C 156.461 3.955,155.200 4.225,155.200 4.400 C 155.200 4.575,153.941 4.845,152.401 5.000 C 150.862 5.154,149.688 5.418,149.791 5.586 C 149.895 5.754,149.053 6.001,147.921 6.135 C 146.788 6.269,145.676 6.564,145.451 6.789 C 145.225 7.015,144.536 7.200,143.920 7.200 C 143.304 7.200,142.800 7.374,142.800 7.586 C 142.800 7.799,141.896 8.092,140.791 8.239 C 139.686 8.386,138.692 8.651,138.582 8.830 C 138.472 9.008,137.576 9.275,136.591 9.422 C 135.606 9.570,134.800 9.830,134.800 10.000 C 134.800 10.170,134.259 10.412,133.598 10.538 C 131.745 10.891,132.054 10.777,127.344 12.838 C 126.433 13.237,125.173 13.691,124.544 13.848 C 123.915 14.005,122.608 14.553,121.640 15.067 C 120.673 15.580,119.729 16.000,119.543 16.000 C 118.942 16.000,116.000 17.380,116.000 17.663 C 116.000 17.813,115.415 18.061,114.700 18.213 C 113.985 18.365,113.066 18.784,112.658 19.145 C 112.250 19.505,111.800 19.751,111.658 19.691 C 111.406 19.584,108.796 20.798,108.400 21.206 C 108.290 21.319,107.437 21.769,106.505 22.206 C 105.572 22.643,104.807 23.121,104.805 23.268 C 104.802 23.416,104.260 23.655,103.600 23.800 C 102.940 23.945,102.400 24.217,102.400 24.405 C 102.400 24.593,101.995 24.872,101.500 25.027 C 101.005 25.181,100.510 25.419,100.400 25.554 C 100.290 25.689,99.570 26.141,98.800 26.557 C 95.682 28.244,95.036 28.625,94.321 29.200 C 93.910 29.530,93.486 29.751,93.379 29.692 C 93.272 29.632,92.801 29.941,92.332 30.378 C 91.863 30.815,91.298 31.061,91.078 30.924 C 90.857 30.788,90.783 30.848,90.912 31.058 C 91.042 31.268,90.781 31.669,90.332 31.949 C 89.662 32.368,89.565 32.364,89.788 31.930 C 89.937 31.638,89.801 31.715,89.486 32.100 C 89.170 32.485,88.707 32.800,88.456 32.800 C 88.205 32.800,88.000 32.977,88.000 33.192 C 88.000 33.408,87.563 33.694,87.029 33.828 C 86.495 33.963,85.961 34.326,85.841 34.636 C 85.722 34.946,85.393 35.200,85.108 35.200 C 84.824 35.200,84.107 35.650,83.513 36.200 C 82.920 36.750,82.247 37.200,82.017 37.200 C 81.788 37.200,81.600 37.368,81.600 37.573 C 81.600 37.778,81.232 38.063,80.783 38.205 C 80.334 38.348,79.479 38.905,78.883 39.444 C 78.287 39.982,77.044 41.026,76.119 41.764 C 75.195 42.501,74.565 43.245,74.719 43.417 C 74.874 43.588,74.797 43.612,74.549 43.471 C 74.301 43.329,73.433 43.840,72.620 44.607 C 71.808 45.373,71.005 46.000,70.837 46.000 C 70.669 46.000,69.917 46.676,69.166 47.501 C 68.415 48.327,67.286 49.333,66.658 49.738 C 65.246 50.647,49.600 66.253,49.600 66.752 C 49.600 66.951,48.744 67.988,47.699 69.057 C 46.653 70.125,45.348 71.595,44.799 72.322 C 43.755 73.704,42.881 74.784,41.576 76.303 C 41.149 76.800,40.800 77.345,40.800 77.514 C 40.800 77.684,40.440 78.130,40.000 78.507 C 39.560 78.884,39.200 79.475,39.200 79.820 C 39.200 80.165,39.020 80.336,38.800 80.200 C 38.580 80.064,38.400 80.239,38.400 80.589 C 38.400 80.939,38.130 81.329,37.800 81.455 C 37.470 81.582,37.200 81.921,37.200 82.209 C 37.200 82.498,37.057 82.793,36.883 82.867 C 36.709 82.940,36.154 83.675,35.650 84.500 C 35.147 85.325,34.589 86.000,34.411 86.000 C 34.233 86.000,33.974 86.450,33.836 87.000 C 33.698 87.550,33.408 88.000,33.192 88.000 C 32.977 88.000,32.800 88.251,32.800 88.557 C 32.800 88.864,32.530 89.218,32.200 89.345 C 31.870 89.471,31.600 89.773,31.600 90.016 C 31.600 90.259,31.328 90.729,30.996 91.061 C 30.664 91.393,30.496 91.831,30.622 92.035 C 30.748 92.239,30.569 92.514,30.225 92.646 C 29.881 92.778,29.600 93.109,29.600 93.383 C 29.600 93.656,29.060 94.625,28.400 95.537 C 27.740 96.448,27.200 97.375,27.200 97.597 C 27.200 97.818,27.034 98.000,26.832 98.000 C 26.629 98.000,26.345 98.540,26.200 99.200 C 26.055 99.860,25.774 100.400,25.576 100.400 C 25.378 100.400,25.102 100.850,24.964 101.400 C 24.826 101.950,24.567 102.400,24.388 102.400 C 24.210 102.400,23.945 102.940,23.800 103.600 C 23.655 104.260,23.371 104.800,23.168 104.800 C 22.966 104.800,22.800 105.055,22.800 105.367 C 22.800 105.678,22.658 105.993,22.484 106.067 C 22.104 106.227,18.577 113.379,18.177 114.800 C 18.022 115.350,17.546 116.295,17.120 116.900 C 16.694 117.505,16.484 118.000,16.653 118.000 C 16.822 118.000,16.744 118.216,16.480 118.480 C 16.216 118.744,16.000 119.284,16.000 119.680 C 16.000 120.076,15.864 120.400,15.698 120.400 C 15.402 120.400,14.801 121.897,13.890 124.900 C 13.639 125.725,13.292 126.400,13.117 126.400 C 12.943 126.400,12.800 126.749,12.800 127.176 C 12.800 127.603,12.634 128.055,12.431 128.181 C 12.228 128.306,11.941 128.959,11.793 129.632 C 11.645 130.304,11.273 131.337,10.965 131.927 C 10.657 132.517,10.404 133.394,10.402 133.876 C 10.401 134.358,10.236 134.854,10.035 134.978 C 9.834 135.103,9.548 135.922,9.400 136.800 C 9.252 137.678,8.971 138.494,8.777 138.614 C 8.582 138.735,8.305 139.725,8.160 140.816 C 8.015 141.907,7.740 142.800,7.548 142.800 C 7.357 142.800,7.200 143.329,7.200 143.976 C 7.200 144.623,7.025 145.261,6.812 145.393 C 6.598 145.525,6.305 146.525,6.160 147.616 C 6.015 148.707,5.740 149.600,5.548 149.600 C 5.357 149.600,5.231 149.735,5.269 149.900 C 5.426 150.579,4.685 154.800,4.409 154.800 C 4.245 154.800,3.987 156.007,3.836 157.483 C 3.684 158.958,3.410 160.353,3.225 160.583 C 2.868 161.027,2.413 163.639,2.268 166.077 C 2.219 166.889,2.049 167.684,1.890 167.844 C 1.730 168.003,1.600 169.078,1.600 170.233 C 1.600 171.388,1.441 172.393,1.247 172.467 C -0.338 173.065,-0.338 226.935,1.247 227.533 C 1.441 227.607,1.600 228.612,1.600 229.767 C 1.600 230.922,1.730 231.997,1.890 232.156 C 2.049 232.316,2.223 233.111,2.276 233.923 C 2.487 237.139,2.894 239.600,3.214 239.600 C 3.400 239.600,3.676 240.860,3.827 242.400 C 3.979 243.940,4.246 245.200,4.420 245.200 C 4.594 245.200,4.862 246.370,5.015 247.800 C 5.168 249.230,5.431 250.400,5.601 250.400 C 5.770 250.400,6.031 251.387,6.182 252.594 C 6.333 253.800,6.623 254.891,6.828 255.017 C 7.033 255.144,7.200 255.687,7.200 256.224 C 7.200 256.761,7.357 257.200,7.548 257.200 C 7.740 257.200,8.015 258.093,8.160 259.184 C 8.305 260.275,8.588 261.269,8.788 261.393 C 8.989 261.517,9.275 262.424,9.422 263.409 C 9.570 264.394,9.850 265.200,10.045 265.200 C 10.240 265.200,10.401 265.605,10.402 266.100 C 10.404 266.595,10.657 267.483,10.965 268.073 C 11.273 268.663,11.645 269.696,11.793 270.368 C 11.941 271.041,12.228 271.694,12.431 271.819 C 12.634 271.945,12.800 272.382,12.800 272.790 C 12.800 273.199,12.935 273.593,13.100 273.667 C 13.265 273.740,13.843 275.105,14.385 276.700 C 14.927 278.295,15.483 279.600,15.621 279.600 C 15.758 279.600,16.207 280.590,16.618 281.800 C 17.029 283.010,17.494 284.000,17.651 284.000 C 17.808 284.000,18.055 284.540,18.200 285.200 C 18.345 285.860,18.609 286.400,18.787 286.400 C 18.965 286.400,19.229 287.030,19.374 287.800 C 19.518 288.570,19.794 289.200,19.986 289.200 C 20.179 289.200,20.455 289.740,20.600 290.400 C 20.745 291.060,21.015 291.600,21.200 291.600 C 21.385 291.600,21.650 292.116,21.788 292.746 C 21.927 293.376,22.346 294.242,22.720 294.669 C 23.644 295.726,24.800 297.935,24.800 298.645 C 24.800 298.964,25.052 299.322,25.361 299.440 C 25.882 299.640,26.542 301.017,26.443 301.700 C 26.419 301.865,26.580 302.000,26.800 302.000 C 27.020 302.000,27.200 302.192,27.200 302.427 C 27.200 302.661,27.629 303.426,28.154 304.127 C 28.678 304.827,29.230 305.805,29.381 306.300 C 29.531 306.795,29.802 307.200,29.984 307.200 C 30.165 307.200,30.426 307.650,30.564 308.200 C 30.702 308.750,30.992 309.200,31.208 309.200 C 31.423 309.200,31.600 309.476,31.600 309.813 C 31.600 310.149,31.870 310.529,32.200 310.655 C 32.530 310.782,32.800 311.136,32.800 311.443 C 32.800 311.749,32.977 312.000,33.192 312.000 C 33.408 312.000,33.694 312.437,33.828 312.971 C 33.963 313.505,34.326 314.039,34.636 314.159 C 34.946 314.278,35.200 314.607,35.200 314.892 C 35.200 315.176,35.650 315.893,36.200 316.487 C 36.750 317.080,37.200 317.753,37.200 317.983 C 37.200 318.212,37.368 318.400,37.573 318.400 C 37.778 318.400,38.052 318.734,38.182 319.142 C 38.311 319.550,38.948 320.405,39.597 321.042 C 40.247 321.679,40.783 322.356,40.789 322.547 C 40.809 323.168,43.116 325.550,43.426 325.271 C 43.592 325.122,43.612 325.203,43.471 325.451 C 43.329 325.699,43.840 326.567,44.607 327.380 C 45.373 328.192,46.000 328.995,46.000 329.163 C 46.000 329.331,46.676 330.083,47.501 330.834 C 48.327 331.585,49.308 332.675,49.681 333.255 C 50.629 334.729,65.144 349.286,66.604 350.227 C 67.262 350.651,68.415 351.673,69.166 352.499 C 69.917 353.324,70.676 354.000,70.852 354.000 C 71.028 354.000,71.699 354.495,72.343 355.100 C 72.986 355.705,74.104 356.650,74.827 357.200 C 75.549 357.750,76.366 358.425,76.642 358.700 C 76.917 358.975,77.296 359.200,77.483 359.200 C 77.669 359.200,78.130 359.560,78.507 360.000 C 78.884 360.440,79.475 360.800,79.820 360.800 C 80.165 360.800,80.348 360.961,80.226 361.157 C 80.105 361.354,80.462 361.629,81.019 361.769 C 81.577 361.909,81.925 362.198,81.793 362.412 C 81.661 362.625,81.751 362.800,81.993 362.800 C 82.235 362.800,82.813 363.154,83.277 363.586 C 83.741 364.019,84.274 364.278,84.461 364.163 C 84.647 364.047,84.800 364.131,84.800 364.349 C 84.800 364.568,85.163 364.861,85.606 365.002 C 86.049 365.143,86.320 365.405,86.209 365.586 C 86.097 365.767,86.454 366.027,87.003 366.165 C 87.551 366.303,88.000 366.592,88.000 366.808 C 88.000 367.023,88.270 367.200,88.600 367.200 C 88.930 367.200,89.200 367.386,89.200 367.613 C 89.200 367.839,89.515 368.144,89.900 368.290 C 90.285 368.436,90.840 368.792,91.132 369.081 C 91.425 369.371,91.831 369.504,92.035 369.378 C 92.239 369.252,92.514 369.431,92.646 369.775 C 92.778 370.119,93.123 370.400,93.414 370.400 C 93.705 370.400,94.188 370.625,94.488 370.900 C 95.285 371.630,96.499 372.389,97.300 372.658 C 97.685 372.788,98.000 373.038,98.000 373.215 C 98.000 373.392,98.540 373.655,99.200 373.800 C 99.860 373.945,100.400 374.226,100.400 374.424 C 100.400 374.622,100.850 374.898,101.400 375.036 C 101.950 375.174,102.400 375.433,102.400 375.612 C 102.400 375.790,102.940 376.055,103.600 376.200 C 104.260 376.345,104.800 376.589,104.800 376.742 C 104.800 376.895,105.608 377.376,106.596 377.810 C 107.584 378.245,108.394 378.715,108.396 378.855 C 108.398 378.996,109.035 379.230,109.811 379.376 C 110.587 379.521,111.122 379.802,111.000 380.000 C 110.878 380.198,111.413 380.479,112.189 380.624 C 112.965 380.770,113.600 381.029,113.600 381.201 C 113.600 381.373,114.093 381.637,114.696 381.788 C 115.299 381.940,115.900 382.238,116.032 382.452 C 116.164 382.665,116.661 382.869,117.136 382.905 C 117.611 382.941,118.000 383.098,118.000 383.253 C 118.000 383.409,118.540 383.655,119.200 383.800 C 119.860 383.945,120.400 384.215,120.400 384.400 C 120.400 384.585,120.938 384.855,121.595 384.999 C 122.253 385.143,122.894 385.428,123.019 385.631 C 123.145 385.834,123.524 386.000,123.863 386.000 C 124.202 386.000,125.091 386.270,125.840 386.600 C 126.588 386.930,127.875 387.479,128.700 387.819 C 129.525 388.160,130.507 388.607,130.883 388.812 C 131.258 389.017,132.293 389.301,133.183 389.444 C 134.072 389.586,134.800 389.839,134.800 390.006 C 134.800 390.173,135.606 390.430,136.591 390.578 C 137.576 390.725,138.472 390.992,138.582 391.170 C 138.692 391.349,139.686 391.614,140.791 391.761 C 141.896 391.908,142.800 392.201,142.800 392.414 C 142.800 392.626,143.239 392.800,143.776 392.800 C 144.313 392.800,144.859 392.972,144.989 393.182 C 145.118 393.391,146.295 393.684,147.604 393.832 C 148.913 393.980,149.899 394.241,149.794 394.410 C 149.689 394.580,150.862 394.846,152.401 395.000 C 153.941 395.155,155.200 395.425,155.200 395.600 C 155.200 395.775,156.461 396.045,158.002 396.200 C 159.542 396.355,160.903 396.643,161.025 396.841 C 161.147 397.038,162.036 397.200,163.000 397.200 C 163.964 397.200,164.876 397.400,165.027 397.644 C 165.188 397.903,165.860 397.998,166.644 397.870 C 167.382 397.751,168.089 397.821,168.216 398.026 C 168.343 398.232,169.527 398.400,170.847 398.400 C 172.242 398.400,173.150 398.557,173.015 398.776 C 172.887 398.982,173.102 399.141,173.491 399.127 C 173.881 399.114,176.810 399.303,180.000 399.547 C 187.488 400.121,212.512 400.121,220.000 399.547 C 223.190 399.303,226.119 399.114,226.509 399.127 C 226.898 399.141,227.113 398.982,226.985 398.776 C 226.850 398.557,227.758 398.400,229.153 398.400 C 230.473 398.400,231.657 398.232,231.784 398.026 C 231.911 397.821,232.618 397.751,233.356 397.870 C 234.140 397.998,234.812 397.903,234.973 397.644 C 235.124 397.400,236.036 397.200,237.000 397.200 C 237.964 397.200,238.853 397.038,238.975 396.841 C 239.097 396.643,240.458 396.355,241.998 396.200 C 243.539 396.045,244.800 395.775,244.800 395.600 C 244.800 395.425,246.059 395.155,247.599 395.000 C 249.138 394.846,250.311 394.580,250.206 394.410 C 250.101 394.241,251.087 393.980,252.396 393.832 C 253.705 393.684,254.882 393.391,255.011 393.182 C 255.141 392.972,255.687 392.800,256.224 392.800 C 256.761 392.800,257.200 392.631,257.200 392.425 C 257.200 392.218,258.055 391.925,259.100 391.774 C 260.145 391.623,261.180 391.363,261.400 391.196 C 261.620 391.029,262.430 390.761,263.200 390.600 C 263.970 390.439,264.780 390.172,265.000 390.006 C 265.220 389.840,266.097 389.579,266.949 389.425 C 267.801 389.271,268.791 388.986,269.149 388.792 C 269.507 388.598,270.520 388.139,271.400 387.772 C 272.280 387.405,273.567 386.856,274.260 386.553 C 274.954 386.249,275.798 386.000,276.137 386.000 C 276.476 386.000,276.855 385.834,276.981 385.631 C 277.106 385.428,277.747 385.143,278.405 384.999 C 279.062 384.855,279.600 384.585,279.600 384.400 C 279.600 384.215,280.140 383.945,280.800 383.800 C 281.460 383.655,282.000 383.409,282.000 383.253 C 282.000 383.098,282.389 382.941,282.864 382.905 C 283.339 382.869,283.836 382.665,283.968 382.452 C 284.100 382.238,284.701 381.940,285.304 381.788 C 285.907 381.637,286.400 381.373,286.400 381.201 C 286.400 381.029,287.035 380.770,287.811 380.624 C 288.587 380.479,289.128 380.208,289.014 380.022 C 288.818 379.705,290.651 378.993,291.300 379.134 C 291.465 379.170,291.602 379.065,291.604 378.900 C 291.606 378.735,292.416 378.245,293.404 377.810 C 294.392 377.376,295.200 376.895,295.200 376.742 C 295.200 376.589,295.740 376.345,296.400 376.200 C 297.060 376.055,297.600 375.790,297.600 375.612 C 297.600 375.433,298.050 375.174,298.600 375.036 C 299.150 374.898,299.600 374.622,299.600 374.424 C 299.600 374.226,300.140 373.945,300.800 373.800 C 301.460 373.655,302.000 373.392,302.000 373.215 C 302.000 373.038,302.315 372.788,302.700 372.658 C 303.501 372.389,304.715 371.630,305.512 370.900 C 305.812 370.625,306.295 370.400,306.586 370.400 C 306.877 370.400,307.222 370.119,307.354 369.775 C 307.486 369.431,307.761 369.252,307.965 369.378 C 308.169 369.504,308.575 369.371,308.868 369.081 C 309.160 368.792,309.715 368.436,310.100 368.290 C 310.485 368.144,310.800 367.839,310.800 367.613 C 310.800 367.386,311.070 367.200,311.400 367.200 C 311.730 367.200,312.000 367.032,312.000 366.827 C 312.000 366.622,312.392 366.330,312.871 366.178 C 313.350 366.026,314.205 365.471,314.771 364.946 C 315.337 364.421,316.115 363.891,316.500 363.769 C 316.885 363.646,317.200 363.378,317.200 363.173 C 317.200 362.968,317.470 362.800,317.800 362.800 C 318.130 362.800,318.401 362.665,318.403 362.500 C 318.404 362.335,319.078 361.750,319.899 361.200 C 320.721 360.650,321.755 359.822,322.196 359.361 C 322.638 358.899,323.200 358.449,323.445 358.361 C 324.033 358.148,326.195 356.475,327.657 355.100 C 328.301 354.495,328.972 354.000,329.148 354.000 C 329.324 354.000,330.083 353.324,330.834 352.499 C 331.585 351.673,332.740 350.650,333.400 350.224 C 334.529 349.497,349.778 334.400,349.384 334.400 C 349.140 334.400,350.218 333.184,352.300 331.112 C 353.235 330.181,354.000 329.287,354.000 329.124 C 354.000 328.961,354.495 328.293,355.100 327.639 C 356.887 325.708,358.988 323.124,359.161 322.645 C 359.249 322.400,359.832 321.673,360.457 321.028 C 361.081 320.384,361.696 319.529,361.823 319.128 C 361.950 318.728,362.222 318.400,362.427 318.400 C 362.632 318.400,362.800 318.222,362.800 318.005 C 362.800 317.787,363.071 317.292,363.403 316.905 C 363.735 316.517,363.993 316.052,363.976 315.871 C 363.960 315.690,364.387 315.133,364.926 314.633 C 365.465 314.134,366.030 313.337,366.180 312.862 C 366.331 312.388,366.622 312.000,366.827 312.000 C 367.032 312.000,367.200 311.749,367.200 311.443 C 367.200 311.136,367.470 310.782,367.800 310.655 C 368.130 310.529,368.400 310.227,368.400 309.984 C 368.400 309.741,368.672 309.271,369.004 308.939 C 369.336 308.607,369.504 308.169,369.378 307.965 C 369.252 307.761,369.431 307.486,369.775 307.354 C 370.119 307.222,370.400 306.891,370.400 306.617 C 370.400 306.344,370.940 305.375,371.600 304.463 C 372.260 303.552,372.800 302.625,372.800 302.403 C 372.800 302.182,372.980 302.000,373.200 302.000 C 373.420 302.000,373.571 301.865,373.536 301.700 C 373.440 301.246,374.088 299.868,374.678 299.271 C 374.965 298.981,375.200 298.486,375.200 298.171 C 375.200 297.857,375.360 297.600,375.557 297.600 C 375.753 297.600,376.030 297.135,376.173 296.566 C 376.316 295.997,376.776 295.163,377.196 294.712 C 377.616 294.261,378.073 293.376,378.212 292.746 C 378.350 292.116,378.615 291.600,378.800 291.600 C 378.985 291.600,379.255 291.060,379.400 290.400 C 379.545 289.740,379.821 289.200,380.014 289.200 C 380.206 289.200,380.482 288.570,380.626 287.800 C 380.771 287.030,381.029 286.400,381.201 286.400 C 381.373 286.400,381.637 285.907,381.788 285.304 C 381.940 284.701,382.225 284.108,382.422 283.987 C 382.619 283.865,382.852 283.413,382.941 282.983 C 383.199 281.724,384.151 279.600,384.456 279.600 C 384.610 279.600,384.862 279.015,385.014 278.300 C 385.167 277.585,385.431 276.820,385.600 276.600 C 385.769 276.380,386.033 275.615,386.186 274.900 C 386.338 274.185,386.629 273.600,386.832 273.600 C 387.034 273.600,387.200 273.351,387.200 273.046 C 387.200 272.741,387.469 271.976,387.798 271.346 C 388.126 270.716,388.396 269.896,388.398 269.524 C 388.399 269.152,388.564 268.746,388.765 268.622 C 388.966 268.497,389.252 267.678,389.400 266.800 C 389.548 265.922,389.818 265.112,390.000 265.000 C 390.182 264.888,390.452 264.078,390.600 263.200 C 390.748 262.322,391.029 261.506,391.223 261.386 C 391.418 261.265,391.695 260.275,391.840 259.184 C 391.985 258.093,392.260 257.200,392.452 257.200 C 392.643 257.200,392.800 256.660,392.800 256.000 C 392.800 255.340,392.967 254.800,393.171 254.800 C 393.375 254.800,393.666 253.810,393.817 252.600 C 393.968 251.390,394.230 250.400,394.399 250.400 C 394.569 250.400,394.832 249.232,394.985 247.804 C 395.138 246.377,395.405 245.121,395.579 245.013 C 395.752 244.906,396.022 243.691,396.178 242.313 C 396.334 240.935,396.617 239.620,396.808 239.391 C 396.998 239.161,397.198 238.124,397.252 237.087 C 397.306 236.049,397.519 235.200,397.727 235.200 C 397.935 235.200,398.003 234.574,397.879 233.807 C 397.754 233.041,397.821 232.311,398.026 232.184 C 398.232 232.057,398.400 230.988,398.400 229.810 C 398.400 228.631,398.559 227.607,398.753 227.533 C 400.338 226.935,400.338 173.065,398.753 172.467 C 398.559 172.393,398.400 171.369,398.400 170.190 C 398.400 169.012,398.232 167.943,398.026 167.816 C 397.821 167.689,397.754 166.959,397.879 166.193 C 398.003 165.426,397.935 164.800,397.727 164.800 C 397.519 164.800,397.306 163.951,397.252 162.913 C 397.198 161.876,396.993 160.833,396.797 160.596 C 396.600 160.359,396.316 158.958,396.164 157.483 C 396.013 156.007,395.749 154.800,395.577 154.800 C 395.404 154.800,395.139 153.632,394.986 152.205 C 394.833 150.778,394.573 149.693,394.408 149.795 C 394.244 149.897,393.999 149.053,393.865 147.921 C 393.731 146.788,393.436 145.676,393.211 145.451 C 392.985 145.225,392.800 144.536,392.800 143.920 C 392.800 143.304,392.637 142.800,392.438 142.800 C 392.238 142.800,391.951 141.900,391.800 140.800 C 391.649 139.701,391.372 138.706,391.186 138.591 C 390.999 138.476,390.725 137.576,390.578 136.591 C 390.430 135.606,390.150 134.800,389.955 134.800 C 389.760 134.800,389.599 134.395,389.598 133.900 C 389.596 133.405,389.343 132.517,389.035 131.927 C 388.727 131.337,388.355 130.304,388.207 129.632 C 388.059 128.959,387.772 128.306,387.569 128.181 C 387.366 128.055,387.200 127.618,387.200 127.210 C 387.200 126.801,387.065 126.407,386.900 126.333 C 386.735 126.260,386.157 124.895,385.615 123.300 C 385.073 121.705,384.507 120.400,384.358 120.400 C 384.136 120.400,383.566 118.763,383.523 118.000 C 383.517 117.890,383.195 117.350,382.809 116.800 C 382.422 116.250,381.969 115.350,381.803 114.800 C 381.296 113.121,377.116 104.800,376.779 104.800 C 376.606 104.800,376.345 104.260,376.200 103.600 C 376.055 102.940,375.790 102.400,375.612 102.400 C 375.433 102.400,375.174 101.950,375.036 101.400 C 374.898 100.850,374.622 100.400,374.424 100.400 C 374.226 100.400,373.945 99.860,373.800 99.200 C 373.655 98.540,373.371 98.000,373.168 98.000 C 372.966 98.000,372.800 97.730,372.800 97.400 C 372.800 97.070,372.623 96.800,372.408 96.800 C 372.192 96.800,371.902 96.350,371.764 95.800 C 371.626 95.250,371.365 94.800,371.184 94.800 C 371.002 94.800,370.728 94.395,370.573 93.900 C 370.419 93.405,370.104 92.879,369.874 92.732 C 369.644 92.585,369.408 92.138,369.350 91.739 C 369.291 91.341,369.054 90.951,368.822 90.874 C 368.590 90.797,368.400 90.473,368.400 90.154 C 368.400 89.836,368.130 89.471,367.800 89.345 C 367.470 89.218,367.200 88.946,367.200 88.740 C 367.200 88.534,366.750 87.880,366.200 87.287 C 365.650 86.693,365.200 86.064,365.200 85.888 C 365.200 85.486,363.504 83.046,363.100 82.867 C 362.935 82.793,362.800 82.448,362.800 82.100 C 362.800 81.752,362.679 81.587,362.532 81.735 C 362.385 81.882,361.811 81.241,361.256 80.312 C 360.701 79.382,359.832 78.235,359.324 77.764 C 358.816 77.294,358.400 76.773,358.400 76.607 C 358.400 76.308,356.918 74.422,355.001 72.284 C 354.450 71.670,354.000 71.035,354.000 70.874 C 354.000 70.712,353.190 69.818,352.200 68.886 C 351.210 67.955,350.400 67.011,350.400 66.790 C 350.400 66.257,334.864 50.719,333.366 49.754 C 332.725 49.340,331.585 48.327,330.834 47.501 C 330.083 46.676,329.331 46.000,329.163 46.000 C 328.995 46.000,328.192 45.373,327.380 44.607 C 326.567 43.840,325.699 43.329,325.451 43.471 C 325.203 43.612,325.122 43.592,325.271 43.426 C 325.550 43.116,323.168 40.809,322.547 40.789 C 322.356 40.783,321.679 40.247,321.042 39.597 C 320.405 38.948,319.550 38.311,319.142 38.182 C 318.734 38.052,318.400 37.778,318.400 37.573 C 318.400 37.368,318.212 37.200,317.983 37.200 C 317.753 37.200,317.080 36.750,316.487 36.200 C 315.893 35.650,315.176 35.200,314.892 35.200 C 314.607 35.200,314.278 34.946,314.159 34.636 C 314.039 34.326,313.505 33.963,312.971 33.828 C 312.437 33.694,312.000 33.408,312.000 33.192 C 312.000 32.977,311.795 32.800,311.544 32.800 C 311.293 32.800,310.830 32.485,310.514 32.100 C 310.186 31.700,310.073 31.657,310.250 32.000 C 310.420 32.330,309.849 32.067,308.980 31.417 C 308.111 30.766,307.340 30.091,307.267 29.917 C 307.193 29.742,306.891 29.600,306.595 29.600 C 306.299 29.600,305.811 29.375,305.510 29.100 C 304.969 28.605,304.275 28.200,300.000 25.886 C 298.790 25.231,297.708 24.553,297.596 24.379 C 297.484 24.206,296.899 23.940,296.296 23.788 C 295.693 23.637,295.200 23.393,295.200 23.246 C 295.200 23.099,294.392 22.624,293.404 22.190 C 292.416 21.755,291.606 21.279,291.604 21.132 C 291.602 20.984,291.060 20.745,290.400 20.600 C 289.740 20.455,289.200 20.205,289.200 20.045 C 289.200 19.743,286.941 18.692,285.200 18.184 C 284.650 18.023,284.110 17.772,284.000 17.625 C 283.738 17.276,280.989 16.000,280.499 16.000 C 280.290 16.000,279.273 15.550,278.238 15.000 C 277.204 14.450,276.169 14.000,275.939 14.000 C 275.709 14.000,274.864 13.712,274.060 13.359 C 273.257 13.007,272.150 12.540,271.600 12.322 C 271.050 12.104,270.090 11.672,269.466 11.362 C 268.843 11.052,267.628 10.686,266.766 10.548 C 265.905 10.410,265.200 10.161,265.200 9.994 C 265.200 9.827,264.394 9.570,263.409 9.422 C 262.424 9.275,261.528 9.008,261.418 8.830 C 261.308 8.651,260.314 8.386,259.209 8.239 C 258.104 8.092,257.200 7.799,257.200 7.586 C 257.200 7.374,256.671 7.200,256.024 7.200 C 255.377 7.200,254.739 7.025,254.607 6.812 C 254.475 6.598,253.475 6.305,252.384 6.160 C 251.293 6.015,250.400 5.758,250.400 5.589 C 250.400 5.420,249.140 5.155,247.600 5.000 C 246.060 4.845,244.800 4.575,244.800 4.400 C 244.800 4.225,243.539 3.955,241.998 3.800 C 240.458 3.645,239.097 3.357,238.975 3.159 C 238.853 2.962,237.964 2.800,237.000 2.800 C 236.036 2.800,235.133 2.615,234.994 2.389 C 234.854 2.164,234.168 1.977,233.470 1.975 C 230.946 1.967,227.600 1.519,227.600 1.188 C 227.600 1.002,227.285 0.860,226.900 0.872 C 226.515 0.884,223.140 0.694,219.400 0.451 C 211.508 -0.063,187.813 -0.046,178.811 0.480 M212.091 127.495 C 212.371 127.719,213.813 128.029,215.296 128.183 C 216.778 128.337,218.094 128.629,218.219 128.831 C 218.345 129.034,218.860 129.200,219.365 129.200 C 219.870 129.200,221.524 129.668,223.041 130.239 C 224.559 130.811,226.205 131.372,226.700 131.486 C 227.195 131.600,227.600 131.852,227.600 132.047 C 227.600 132.241,227.915 132.406,228.300 132.414 C 228.685 132.421,229.720 132.775,230.600 133.200 C 231.480 133.625,232.410 133.979,232.667 133.986 C 232.923 133.994,233.193 134.135,233.267 134.300 C 233.340 134.465,234.615 135.224,236.100 135.987 C 237.585 136.750,238.800 137.496,238.800 137.644 C 238.800 137.792,239.250 138.026,239.800 138.164 C 240.350 138.302,240.800 138.592,240.800 138.808 C 240.800 139.023,240.999 139.200,241.242 139.200 C 241.485 139.200,242.177 139.605,242.780 140.100 C 243.382 140.595,244.578 141.540,245.437 142.200 C 248.663 144.677,253.835 149.704,256.342 152.800 C 257.144 153.790,257.895 154.690,258.010 154.800 C 258.752 155.505,260.800 158.386,260.800 158.724 C 260.800 158.949,260.935 159.193,261.100 159.267 C 261.440 159.418,263.200 161.856,263.200 162.176 C 263.200 162.291,263.805 163.333,264.544 164.492 C 265.284 165.652,266.028 167.050,266.198 167.600 C 266.368 168.150,266.754 168.955,267.054 169.389 C 267.354 169.823,267.600 170.498,267.600 170.889 C 267.600 171.280,267.736 171.600,267.902 171.600 C 268.212 171.600,268.420 172.139,269.990 177.000 C 270.487 178.540,271.031 180.077,271.198 180.416 C 271.365 180.755,271.634 182.015,271.796 183.216 C 271.957 184.417,272.232 185.580,272.407 185.800 C 273.447 187.111,274.090 202.678,273.341 208.400 L 273.000 211.000 254.400 211.243 C 244.170 211.377,235.406 211.512,234.925 211.543 C 234.244 211.587,237.167 214.731,248.125 225.738 C 255.866 233.514,264.559 242.289,267.443 245.238 C 270.326 248.187,273.971 251.814,275.543 253.299 C 277.114 254.783,278.398 256.133,278.395 256.299 C 278.383 256.986,254.488 280.800,253.811 280.800 C 253.400 280.800,249.770 277.460,245.443 273.100 C 235.888 263.474,236.857 264.207,234.951 265.169 C 234.098 265.600,232.770 266.219,232.000 266.544 C 231.230 266.869,229.430 267.654,228.000 268.288 C 226.570 268.922,224.320 269.771,223.000 270.176 C 221.680 270.581,220.240 271.061,219.800 271.242 C 218.698 271.697,215.184 272.387,211.600 272.851 C 209.950 273.065,207.700 273.426,206.600 273.653 C 203.573 274.278,186.936 273.314,185.836 272.449 C 185.596 272.261,184.439 271.984,183.265 271.835 C 182.091 271.685,180.831 271.414,180.465 271.231 C 180.099 271.049,178.720 270.568,177.400 270.162 C 176.080 269.756,174.550 269.195,174.000 268.914 C 173.450 268.634,172.685 268.404,172.300 268.402 C 171.915 268.401,171.600 268.220,171.600 268.000 C 171.600 267.780,171.274 267.600,170.875 267.600 C 169.471 267.600,157.694 260.955,156.000 259.206 C 155.890 259.093,154.900 258.303,153.800 257.450 C 151.648 255.783,142.800 246.863,142.800 246.361 C 142.800 246.194,142.572 245.819,142.294 245.529 C 141.140 244.322,139.200 241.656,139.200 241.276 C 139.200 241.051,139.044 240.807,138.853 240.733 C 138.362 240.545,134.066 233.003,133.764 231.798 C 133.626 231.249,133.353 230.800,133.157 230.800 C 132.960 230.800,132.800 230.602,132.800 230.360 C 132.800 230.119,132.554 229.354,132.254 228.660 C 131.256 226.360,129.641 221.817,129.388 220.600 C 129.250 219.940,128.980 219.040,128.786 218.600 C 128.424 217.774,127.825 214.529,127.200 210.000 C 125.782 199.729,127.438 183.943,130.828 175.400 C 133.899 167.663,137.506 160.955,141.151 156.200 C 142.162 154.880,143.262 153.440,143.595 153.000 C 146.821 148.733,156.927 140.068,161.599 137.564 C 162.588 137.034,163.488 136.510,163.599 136.400 C 163.709 136.290,164.160 136.007,164.600 135.771 C 165.040 135.534,165.940 135.047,166.600 134.687 C 167.260 134.327,168.700 133.653,169.800 133.188 C 170.900 132.723,172.340 132.103,173.000 131.812 C 173.660 131.520,175.730 130.788,177.600 130.186 C 179.470 129.585,181.284 128.954,181.632 128.785 C 181.979 128.616,183.509 128.349,185.032 128.191 C 186.554 128.032,187.985 127.755,188.212 127.575 C 189.209 126.784,211.112 126.710,212.091 127.495 M194.235 166.744 C 194.118 166.933,193.021 167.205,191.798 167.349 C 190.574 167.493,189.264 167.780,188.886 167.987 C 188.509 168.195,186.970 168.914,185.467 169.585 C 178.609 172.646,171.905 179.672,169.041 186.800 C 168.643 187.790,168.160 188.907,167.966 189.283 C 167.773 189.658,167.497 190.738,167.353 191.683 C 167.209 192.627,166.926 193.610,166.724 193.866 C 165.798 195.045,166.923 209.440,168.031 210.580 C 168.234 210.789,168.403 211.239,168.407 211.580 C 168.416 212.445,170.737 217.002,172.389 219.400 C 175.360 223.712,181.598 228.856,186.237 230.820 C 187.317 231.278,188.560 231.810,189.000 232.003 C 189.440 232.196,190.430 232.465,191.200 232.602 C 191.970 232.738,193.055 233.024,193.611 233.237 C 194.168 233.450,197.124 233.573,200.181 233.512 L 205.739 233.400 194.670 222.323 C 188.581 216.230,183.600 210.965,183.600 210.623 C 183.600 210.066,186.179 210.000,207.982 210.000 L 232.364 210.000 232.607 208.500 C 232.741 207.675,233.019 206.587,233.225 206.081 C 233.715 204.879,233.711 194.993,233.220 194.095 C 233.012 193.713,232.731 192.549,232.597 191.509 C 232.463 190.469,232.184 189.514,231.977 189.386 C 231.770 189.258,231.600 188.843,231.600 188.465 C 231.600 186.473,227.151 179.534,223.711 176.160 C 220.026 172.545,213.564 168.436,211.524 168.409 C 211.152 168.404,210.741 168.228,210.611 168.018 C 210.482 167.809,209.297 167.515,207.979 167.366 C 206.661 167.217,205.486 166.938,205.367 166.747 C 205.089 166.296,194.514 166.293,194.235 166.744 " stroke="none" fill="#242c3c" fill-rule="evenodd"></path><path id="path2" d="M236.905 211.087 C 237.514 211.179,238.414 211.177,238.905 211.082 C 239.397 210.987,238.900 210.911,237.800 210.914 C 236.700 210.917,236.297 210.995,236.905 211.087 M238.600 216.800 C 240.350 218.560,241.871 220.000,241.981 220.000 C 242.091 220.000,240.750 218.560,239.000 216.800 C 237.250 215.040,235.729 213.600,235.619 213.600 C 235.509 213.600,236.850 215.040,238.600 216.800 M246.800 224.925 C 246.800 224.994,247.385 225.579,248.100 226.225 L 249.400 227.400 248.225 226.100 C 247.130 224.888,246.800 224.616,246.800 224.925 M253.000 231.200 C 254.306 232.520,255.465 233.600,255.575 233.600 C 255.685 233.600,254.706 232.520,253.400 231.200 C 252.094 229.880,250.935 228.800,250.825 228.800 C 250.715 228.800,251.694 229.880,253.000 231.200 M258.400 236.600 C 259.595 237.810,260.663 238.800,260.773 238.800 C 260.883 238.800,259.995 237.810,258.800 236.600 C 257.605 235.390,256.537 234.400,256.427 234.400 C 256.317 234.400,257.205 235.390,258.400 236.600 M240.400 267.800 C 242.260 269.670,243.872 271.200,243.982 271.200 C 244.092 271.200,242.660 269.670,240.800 267.800 C 238.940 265.930,237.328 264.400,237.218 264.400 C 237.108 264.400,238.540 265.930,240.400 267.800 M260.786 273.900 L 258.600 276.200 260.900 274.014 C 263.037 271.982,263.383 271.600,263.086 271.600 C 263.024 271.600,261.989 272.635,260.786 273.900 M247.183 274.500 C 248.164 275.545,249.019 276.400,249.083 276.400 C 249.384 276.400,249.066 276.041,247.300 274.383 L 245.400 272.600 247.183 274.500 " stroke="none" fill="#626a73" fill-rule="evenodd"></path><path id="path3" d="M194.700 127.489 C 195.415 127.578,196.585 127.578,197.300 127.489 C 198.015 127.401,197.430 127.328,196.000 127.328 C 194.570 127.328,193.985 127.401,194.700 127.489 M202.700 127.489 C 203.415 127.578,204.585 127.578,205.300 127.489 C 206.015 127.401,205.430 127.328,204.000 127.328 C 202.570 127.328,201.985 127.401,202.700 127.489 M182.200 129.200 C 181.696 129.417,181.622 129.544,182.000 129.544 C 182.330 129.544,182.960 129.389,183.400 129.200 C 183.904 128.983,183.978 128.856,183.600 128.856 C 183.270 128.856,182.640 129.011,182.200 129.200 M246.000 143.325 C 246.000 143.394,246.585 143.979,247.300 144.625 L 248.600 145.800 247.425 144.500 C 246.330 143.288,246.000 143.016,246.000 143.325 M148.192 148.900 L 144.200 153.000 148.300 149.008 C 150.555 146.812,152.400 144.967,152.400 144.908 C 152.400 144.618,151.901 145.092,148.192 148.900 M251.400 148.400 C 252.928 149.940,254.269 151.200,254.379 151.200 C 254.489 151.200,253.328 149.940,251.800 148.400 C 250.272 146.860,248.931 145.600,248.821 145.600 C 248.711 145.600,249.872 146.860,251.400 148.400 M254.400 151.725 C 254.400 151.794,254.985 152.379,255.700 153.025 L 257.000 154.200 255.825 152.900 C 254.730 151.688,254.400 151.416,254.400 151.725 M258.975 157.332 C 259.591 158.139,260.176 158.800,260.275 158.800 C 260.553 158.800,258.821 156.460,258.309 156.144 C 258.059 155.989,258.359 156.524,258.975 157.332 M140.319 158.100 C 139.157 159.648,138.696 160.400,138.909 160.400 C 138.994 160.400,139.646 159.590,140.357 158.600 C 141.832 156.546,141.800 156.127,140.319 158.100 M196.705 165.883 C 197.202 165.979,197.922 165.975,198.305 165.875 C 198.687 165.775,198.280 165.696,197.400 165.701 C 196.520 165.705,196.207 165.787,196.705 165.883 M201.905 165.883 C 202.402 165.979,203.122 165.975,203.505 165.875 C 203.887 165.775,203.480 165.696,202.600 165.701 C 201.720 165.705,201.407 165.787,201.905 165.883 M193.300 166.276 C 193.685 166.376,194.315 166.376,194.700 166.276 C 195.085 166.175,194.770 166.093,194.000 166.093 C 193.230 166.093,192.915 166.175,193.300 166.276 M132.467 172.380 C 132.233 173.051,132.127 173.600,132.231 173.600 C 132.501 173.600,133.256 171.522,133.057 171.324 C 132.967 171.233,132.701 171.708,132.467 172.380 M174.175 177.300 L 173.000 178.600 174.300 177.425 C 175.512 176.330,175.784 176.000,175.475 176.000 C 175.406 176.000,174.821 176.585,174.175 177.300 M224.400 176.125 C 224.400 176.194,224.985 176.779,225.700 177.425 L 227.000 178.600 225.825 177.300 C 224.730 176.088,224.400 175.816,224.400 176.125 M172.323 179.500 C 171.618 180.321,171.090 181.200,171.301 181.200 C 171.383 181.200,171.849 180.660,172.337 180.000 C 173.301 178.696,173.292 178.372,172.323 179.500 M227.599 179.900 C 228.122 180.615,228.613 181.200,228.689 181.200 C 228.993 181.200,228.001 179.700,227.345 179.167 C 226.913 178.816,227.010 179.096,227.599 179.900 M272.920 194.400 C 272.920 195.610,272.995 196.105,273.087 195.500 C 273.178 194.895,273.178 193.905,273.087 193.300 C 272.995 192.695,272.920 193.190,272.920 194.400 M127.324 195.000 C 127.326 196.320,127.401 196.812,127.490 196.093 C 127.579 195.374,127.577 194.294,127.486 193.693 C 127.395 193.092,127.322 193.680,127.324 195.000 M234.109 197.600 C 234.109 198.590,234.187 198.995,234.282 198.500 C 234.378 198.005,234.378 197.195,234.282 196.700 C 234.187 196.205,234.109 196.610,234.109 197.600 M126.914 200.200 C 126.917 201.300,126.995 201.703,127.087 201.095 C 127.179 200.486,127.177 199.586,127.082 199.095 C 126.987 198.603,126.911 199.100,126.914 200.200 M234.101 202.600 C 234.105 203.480,234.187 203.793,234.283 203.295 C 234.379 202.798,234.375 202.078,234.275 201.695 C 234.175 201.313,234.096 201.720,234.101 202.600 M165.693 202.800 C 165.693 203.570,165.775 203.885,165.876 203.500 C 165.976 203.115,165.976 202.485,165.876 202.100 C 165.775 201.715,165.693 202.030,165.693 202.800 M127.314 205.400 C 127.317 206.500,127.395 206.903,127.487 206.295 C 127.579 205.686,127.577 204.786,127.482 204.295 C 127.387 203.803,127.311 204.300,127.314 205.400 M272.914 206.200 C 272.917 207.300,272.995 207.703,273.087 207.095 C 273.179 206.486,273.177 205.586,273.082 205.095 C 272.987 204.603,272.911 205.100,272.914 206.200 M272.446 209.300 L 272.400 210.400 252.833 210.400 C 237.554 210.400,233.222 210.290,233.065 209.900 C 232.904 209.500,232.857 209.500,232.832 209.900 C 232.807 210.294,227.681 210.400,208.624 210.400 C 185.026 210.400,183.224 210.494,184.704 211.655 C 185.334 212.148,185.348 212.133,184.851 211.500 C 184.329 210.835,185.513 210.800,208.518 210.800 C 227.516 210.800,232.777 210.908,232.935 211.300 C 233.096 211.700,233.143 211.700,233.168 211.300 C 233.193 210.907,237.406 210.800,252.813 210.800 C 273.743 210.800,273.180 210.853,272.680 208.923 C 272.558 208.450,272.477 208.580,272.446 209.300 M247.800 226.400 C 255.498 234.100,261.886 240.400,261.996 240.400 C 262.106 240.400,255.898 234.100,248.200 226.400 C 240.502 218.700,234.114 212.400,234.004 212.400 C 233.894 212.400,240.102 218.700,247.800 226.400 M196.400 223.400 C 201.126 228.130,205.083 232.000,205.193 232.000 C 205.303 232.000,201.526 228.130,196.800 223.400 C 192.074 218.670,188.117 214.800,188.007 214.800 C 187.897 214.800,191.674 218.670,196.400 223.400 M176.600 225.164 C 177.436 226.129,180.400 228.583,180.400 228.310 C 180.400 228.223,179.365 227.272,178.100 226.197 C 176.835 225.121,176.160 224.656,176.600 225.164 M135.200 234.000 C 135.649 234.880,136.106 235.600,136.216 235.600 C 136.326 235.600,136.049 234.880,135.600 234.000 C 135.151 233.120,134.694 232.400,134.584 232.400 C 134.474 232.400,134.751 233.120,135.200 234.000 M205.690 233.270 C 205.765 233.631,205.161 233.876,203.800 234.037 L 201.800 234.274 203.651 234.337 C 205.513 234.400,206.952 233.588,206.010 233.006 C 205.773 232.860,205.630 232.979,205.690 233.270 M193.300 233.876 C 193.685 233.976,194.315 233.976,194.700 233.876 C 195.085 233.775,194.770 233.693,194.000 233.693 C 193.230 233.693,192.915 233.775,193.300 233.876 M196.705 234.283 C 197.202 234.379,197.922 234.375,198.305 234.275 C 198.687 234.175,198.280 234.096,197.400 234.101 C 196.520 234.105,196.207 234.187,196.705 234.283 M142.354 245.136 C 142.799 245.760,143.479 246.525,143.865 246.836 C 144.252 247.146,143.960 246.635,143.217 245.700 C 141.691 243.780,141.125 243.410,142.354 245.136 M145.800 249.200 C 146.659 250.080,147.452 250.800,147.562 250.800 C 147.672 250.800,147.059 250.080,146.200 249.200 C 145.341 248.320,144.548 247.600,144.438 247.600 C 144.328 247.600,144.941 248.320,145.800 249.200 M266.797 267.500 L 257.800 276.600 266.900 267.603 C 275.356 259.244,276.180 258.400,275.897 258.400 C 275.840 258.400,271.745 262.495,266.797 267.500 M235.803 263.995 C 235.660 264.227,235.831 264.286,236.218 264.138 C 236.698 263.953,238.786 265.767,243.938 270.843 L 251.000 277.800 244.004 270.700 C 237.294 263.889,236.347 263.115,235.803 263.995 M190.305 272.683 C 190.802 272.779,191.522 272.775,191.905 272.675 C 192.287 272.575,191.880 272.496,191.000 272.501 C 190.120 272.505,189.807 272.587,190.305 272.683 M193.700 273.087 C 194.305 273.178,195.295 273.178,195.900 273.087 C 196.505 272.995,196.010 272.920,194.800 272.920 C 193.590 272.920,193.095 272.995,193.700 273.087 M206.105 273.087 C 206.714 273.179,207.614 273.177,208.105 273.082 C 208.597 272.987,208.100 272.911,207.000 272.914 C 205.900 272.917,205.497 272.995,206.105 273.087 M200.905 273.487 C 201.514 273.579,202.414 273.577,202.905 273.482 C 203.397 273.387,202.900 273.311,201.800 273.314 C 200.700 273.317,200.297 273.395,200.905 273.487 " stroke="none" fill="#999ca4" fill-rule="evenodd"></path><path id="path4" d="M199.100 127.082 C 199.595 127.178,200.405 127.178,200.900 127.082 C 201.395 126.987,200.990 126.909,200.000 126.909 C 199.010 126.909,198.605 126.987,199.100 127.082 " stroke="none" fill="#8c9499" fill-rule="evenodd"></path><path id="path5" d="M195.900 127.082 C 196.395 127.178,197.205 127.178,197.700 127.082 C 198.195 126.987,197.790 126.909,196.800 126.909 C 195.810 126.909,195.405 126.987,195.900 127.082 M202.100 127.076 C 202.485 127.176,203.115 127.176,203.500 127.076 C 203.885 126.975,203.570 126.893,202.800 126.893 C 202.030 126.893,201.715 126.975,202.100 127.076 M147.178 149.500 L 145.800 151.000 147.300 149.622 C 148.125 148.863,148.800 148.188,148.800 148.122 C 148.800 147.816,148.462 148.104,147.178 149.500 M126.893 196.000 C 126.893 196.770,126.975 197.085,127.076 196.700 C 127.176 196.315,127.176 195.685,127.076 195.300 C 126.975 194.915,126.893 195.230,126.893 196.000 M165.693 199.600 C 165.693 200.370,165.775 200.685,165.876 200.300 C 165.976 199.915,165.976 199.285,165.876 198.900 C 165.775 198.515,165.693 198.830,165.693 199.600 M233.905 211.083 C 234.402 211.179,235.122 211.175,235.505 211.075 C 235.887 210.975,235.480 210.896,234.600 210.901 C 233.720 210.905,233.407 210.987,233.905 211.083 M185.600 213.000 C 186.346 213.770,187.047 214.400,187.157 214.400 C 187.267 214.400,186.746 213.770,186.000 213.000 C 185.254 212.230,184.553 211.600,184.443 211.600 C 184.333 211.600,184.854 212.230,185.600 213.000 M265.000 243.600 C 266.083 244.700,267.060 245.600,267.170 245.600 C 267.280 245.600,266.483 244.700,265.400 243.600 C 264.317 242.500,263.340 241.600,263.230 241.600 C 263.120 241.600,263.917 242.500,265.000 243.600 M271.000 249.600 C 272.971 251.580,274.673 253.200,274.783 253.200 C 274.893 253.200,273.371 251.580,271.400 249.600 C 269.429 247.620,267.727 246.000,267.617 246.000 C 267.507 246.000,269.029 247.620,271.000 249.600 M148.400 252.125 C 148.400 252.194,148.985 252.779,149.700 253.425 L 151.000 254.600 149.825 253.300 C 148.730 252.088,148.400 251.816,148.400 252.125 " stroke="none" fill="#80888c" fill-rule="evenodd"></path><path id="path6" d="M196.729 210.300 C 203.399 210.361,214.199 210.361,220.729 210.300 C 227.258 210.238,221.800 210.188,208.600 210.188 C 195.400 210.188,190.058 210.238,196.729 210.300 M247.700 211.100 C 252.265 211.164,259.735 211.164,264.300 211.100 C 268.865 211.035,265.130 210.983,256.000 210.983 C 246.870 210.983,243.135 211.035,247.700 211.100 M200.905 273.887 C 201.514 273.979,202.414 273.977,202.905 273.882 C 203.397 273.787,202.900 273.711,201.800 273.714 C 200.700 273.717,200.297 273.795,200.905 273.887 " stroke="none" fill="#505c64" fill-rule="evenodd"></path><path id="path7" d="" stroke="none" fill="#4c5464" fill-rule="evenodd"></path><path id="path8" d="M148.800 147.400 C 147.828 148.390,147.123 149.200,147.233 149.200 C 147.343 149.200,148.228 148.390,149.200 147.400 C 150.172 146.410,150.877 145.600,150.767 145.600 C 150.657 145.600,149.772 146.410,148.800 147.400 M145.375 150.900 L 144.200 152.200 145.500 151.025 C 146.712 149.930,146.984 149.600,146.675 149.600 C 146.606 149.600,146.021 150.185,145.375 150.900 M273.714 197.000 C 273.717 198.100,273.795 198.503,273.887 197.895 C 273.979 197.286,273.977 196.386,273.882 195.895 C 273.787 195.403,273.711 195.900,273.714 197.000 M273.714 203.800 C 273.717 204.900,273.795 205.303,273.887 204.695 C 273.979 204.086,273.977 203.186,273.882 202.695 C 273.787 202.203,273.711 202.700,273.714 203.800 M235.100 211.493 C 236.035 211.577,237.565 211.577,238.500 211.493 C 239.435 211.409,238.670 211.340,236.800 211.340 C 234.930 211.340,234.165 211.409,235.100 211.493 M251.000 228.800 C 252.083 229.900,253.060 230.800,253.170 230.800 C 253.280 230.800,252.483 229.900,251.400 228.800 C 250.317 227.700,249.340 226.800,249.230 226.800 C 249.120 226.800,249.917 227.700,251.000 228.800 M256.000 233.800 C 256.746 234.570,257.447 235.200,257.557 235.200 C 257.667 235.200,257.146 234.570,256.400 233.800 C 255.654 233.030,254.953 232.400,254.843 232.400 C 254.733 232.400,255.254 233.030,256.000 233.800 M268.000 246.200 C 268.746 246.970,269.447 247.600,269.557 247.600 C 269.667 247.600,269.146 246.970,268.400 246.200 C 267.654 245.430,266.953 244.800,266.843 244.800 C 266.733 244.800,267.254 245.430,268.000 246.200 M272.400 250.525 C 272.400 250.594,272.985 251.179,273.700 251.825 L 275.000 253.000 273.825 251.700 C 272.730 250.488,272.400 250.216,272.400 250.525 M149.183 253.300 C 150.841 255.066,151.200 255.384,151.200 255.083 C 151.200 255.019,150.345 254.164,149.300 253.183 L 147.400 251.400 149.183 253.300 M205.000 273.600 C 203.911 273.877,203.893 273.907,204.800 273.925 C 205.350 273.935,206.160 273.789,206.600 273.600 C 207.586 273.176,206.666 273.176,205.000 273.600 M196.700 273.882 C 197.195 273.978,198.005 273.978,198.500 273.882 C 198.995 273.787,198.590 273.709,197.600 273.709 C 196.610 273.709,196.205 273.787,196.700 273.882 M256.975 278.100 L 255.800 279.400 257.100 278.225 C 257.815 277.579,258.400 276.994,258.400 276.925 C 258.400 276.616,258.070 276.888,256.975 278.100 " stroke="none" fill="#444d57" fill-rule="evenodd"></path></g></svg>